<svg xmlns="http://www.w3.org/2000/svg" xmlns:xlink="http://www.w3.org/1999/xlink" width="243.442" height="54.153" viewBox="0 0 243.442 54.153">
  <defs>
    <clipPath id="clip-path">
      <rect id="Rectangle_13" data-name="Rectangle 13" width="243.442" height="54.153" fill="#50b6f1"/>
    </clipPath>
  </defs>
  <g id="HUBB_Wordmark_-_Blue" data-name="HUBB Wordmark - Blue" transform="translate(0 0)">
    <g id="Group_129" data-name="Group 129" transform="translate(0 0)" clip-path="url(#clip-path)">
      <path id="Path_33" data-name="Path 33" d="M103.824,30.237c0,7.222-2.117,14.6-17.814,14.6-15.6,0-17.756-7.02-17.756-14.6V6.635h-9.78V30.362c0,16.231,8.749,23.791,27.536,23.791s27.535-7.56,27.535-23.791V6.635h-9.721ZM239.162,5.43l-.832-1.345h-.769V7.471h.788V5.582l.682,1.063.058.063h.146l.731-1.136v1.9h.8V4.085h-.769ZM43.963,25.142H9.782V6.635H0V52.9H9.782V34.453H43.963V52.9h9.782V6.635H43.963Zm122.227,3.744a13.9,13.9,0,0,0,3.962-10c0-3.682-1.35-12.246-13.865-12.246H118.333V15.7h35.245c4.462,0,6.31,0,6.31,4.755,0,4.691-1.848,4.691-6.31,4.691H118.333V52.9H156.59c9.6,0,14.889-4.795,14.889-13.5a12.158,12.158,0,0,0-5.288-10.514M154.9,43.841H128.116V33.955H154.9c4.292,0,6.252,0,6.252,4.943s-1.96,4.943-6.252,4.943M234.485,4.875h.944v2.6h.8v-2.6h.944v-.79h-2.689ZM222.706,28.886a13.887,13.887,0,0,0,3.963-10c0-3.682-1.35-12.246-13.863-12.246H174.85V15.7h35.245c4.463,0,6.311,0,6.311,4.755,0,4.691-1.848,4.691-6.311,4.691H174.85V52.9h38.256c9.6,0,14.888-4.795,14.888-13.5a12.157,12.157,0,0,0-5.288-10.514M211.42,43.841H184.632V33.955H211.42c4.291,0,6.25,0,6.25,4.943s-1.958,4.943-6.25,4.943m30.4-42.146A5.4,5.4,0,0,0,237.175.049,5.708,5.708,0,0,0,232.4,5.026a5.908,5.908,0,0,0,1.58,4.835,5.408,5.408,0,0,0,3.921,1.694,5.3,5.3,0,0,0,.72-.048A5.708,5.708,0,0,0,243.4,6.528a5.909,5.909,0,0,0-1.579-4.834m-.689,7.449a4.42,4.42,0,0,1-4.009,1.329,4.686,4.686,0,0,1-3.73-3.885,4.868,4.868,0,0,1,1.276-4.176,4.444,4.444,0,0,1,3.229-1.4,4.548,4.548,0,0,1,.78.068,4.683,4.683,0,0,1,3.73,3.885,4.869,4.869,0,0,1-1.276,4.176" transform="translate(0 0)" fill="#50b6f1"/>
    </g>
  </g>
</svg>
