<svg id="Group_430" data-name="Group 430" xmlns="http://www.w3.org/2000/svg" xmlns:xlink="http://www.w3.org/1999/xlink" width="3109.877" height="1080.085" viewBox="0 0 3109.877 1080.085">
  <defs>
    <clipPath id="clip-path">
      <rect id="Rectangle_41" data-name="Rectangle 41" width="3109.877" height="1080.085" fill="#02699c"/>
    </clipPath>
  </defs>
  <g id="Animated_brandmark_background" data-name="Animated brandmark background">
    <g id="Group_203" data-name="Group 203" clip-path="url(#clip-path)">
      <path id="Path_93" data-name="Path 93" d="M3033.87,270.881H2653.651c-71.3,0-139.995-12.435-192.266-34.812L2107.291,84.461c-14.051-6.015-32.523-9.362-51.714-9.362H1054.23c-19.173,0-37.644,3.347-51.714,9.362L649.052,235.788c-52.7,22.559-121.918,35.094-193.829,35.094H75.973C34,270.881,0,286.573,0,305.917V497.98c0,19.353,34,35.036,75.972,35.036H438.655c79.26,0,152.268-19.833,190.685-51.787L1002.678,170.6c13.4-11.134,38.849-18.052,66.466-18.052h971.519c27.618,0,53.062,6.918,66.449,18.052l369.1,307.078c41,34.149,119.007,55.333,203.695,55.333H3033.87c41.975,0,76.008-15.683,76.008-35.036V305.917c0-19.345-34.033-35.036-76.008-35.036" transform="translate(0.017 547.069)" fill="#02699c"/>
      <path id="Path_94" data-name="Path 94" d="M3027.58,49.366H2642.509c-65.82,0-130.921,6.288-191.206,18.458l-350.068,70.668a168.051,168.051,0,0,1-33.009,3.181H1041.651a168.239,168.239,0,0,1-33.027-3.181L656.8,67.468c-59.153-11.938-123.032-18.1-187.594-18.1H82.315C36.854,49.366,0,66.358,0,87.31V273.523c0,20.952,36.854,37.944,82.315,37.944H474.5c61.076,0,121.487-5.832,177.442-17.124l356.681-72a168.867,168.867,0,0,1,33.027-3.181H2068.226a168.679,168.679,0,0,1,33.009,3.181L2496.6,302.155a491.692,491.692,0,0,0,96.457,9.312H3027.58c45.461,0,82.315-16.992,82.315-37.944V87.31c0-20.952-36.854-37.944-82.315-37.944" transform="translate(0 359.613)" fill="#02699c"/>
      <path id="Path_95" data-name="Path 95" d="M3044.058,0H2691.474c-91.8,0-176.364,22.973-220.855,59.989L2104.254,364.806c-11.607,9.652-33.655,15.641-57.572,15.641H1063.2c-23.934,0-45.982-5.99-57.59-15.641L636.041,57.346C593.491,21.963,512.668,0,424.908,0H65.82C29.487,0,0,13.587,0,30.355V231.763c0,16.76,29.487,30.355,65.82,30.355H449.238c75.756,0,148.728,13.206,204.233,36.974L1024.419,457.9H2059.6c16.621,0,32.631-2.9,44.8-8.111l360.975-154.566c49.719-21.275,115.054-33.105,182.886-33.105h395.8c36.351,0,65.838-13.6,65.838-30.355V30.355C3109.9,13.587,3080.408,0,3044.058,0" fill="#02699c"/>
    </g>
  </g>
</svg>
