<svg id="Icon_-_Trusted" data-name="Icon - Trusted" xmlns="http://www.w3.org/2000/svg" xmlns:xlink="http://www.w3.org/1999/xlink" width="40.71" height="51.774" viewBox="0 0 40.71 51.774">
  <defs>
    <clipPath id="clip-path">
      <rect id="Rectangle_53" data-name="Rectangle 53" width="40.71" height="51.774" fill="none" stroke="#707070" stroke-width="1"/>
    </clipPath>
  </defs>
  <g id="Group_267" data-name="Group 267" clip-path="url(#clip-path)">
    <path id="Path_132" data-name="Path 132" d="M21.959,51.9S40.866,37.548,40.837,33.391c-.028-4.045,0-23.015,0-23.015A24.464,24.464,0,0,1,22.134,3H21.7A24.464,24.464,0,0,1,3,10.376s.028,18.97,0,23.015C2.971,37.548,21.879,51.9,21.879,51.9Z" transform="translate(-1.564 -1.564)" fill="none" stroke="#50b6f1" stroke-linecap="round" stroke-linejoin="round" stroke-width="1"/>
    <path id="Path_133" data-name="Path 133" d="M32.75,49.35l2.926,2.926,5.912-6.748" transform="translate(-17.071 -23.731)" fill="none" stroke="#50b6f1" stroke-linecap="round" stroke-linejoin="round" stroke-width="1"/>
    <path id="Path_134" data-name="Path 134" d="M41.1,44.408a9.965,9.965,0,1,0-9.965,9.965A9.965,9.965,0,0,0,41.1,44.408Z" transform="translate(-11.032 -17.953)" fill="none" stroke="#50b6f1" stroke-linecap="round" stroke-linejoin="round" stroke-width="1"/>
  </g>
</svg>
