<svg id="Icon_-_Ai_Insights" data-name="Icon - Ai Insights" xmlns="http://www.w3.org/2000/svg" xmlns:xlink="http://www.w3.org/1999/xlink" width="50.433" height="46.647" viewBox="0 0 50.433 46.647">
  <defs>
    <clipPath id="clip-path">
      <rect id="Rectangle_57" data-name="Rectangle 57" width="50.433" height="46.647" fill="none" stroke="#707070" stroke-width="1"/>
    </clipPath>
  </defs>
  <g id="Group_276" data-name="Group 276" transform="translate(0 0)" clip-path="url(#clip-path)">
    <path id="Path_142" data-name="Path 142" d="M11.363,7.5a4.5,4.5,0,1,1,4.5,4.5A4.5,4.5,0,0,1,11.363,7.5Z" transform="translate(24.623 -1.564)" fill="none" stroke="#50b6f1" stroke-linecap="round" stroke-linejoin="round" stroke-width="1"/>
    <path id="Path_143" data-name="Path 143" d="M83.528,33.328a4.5,4.5,0,1,1,4.5,4.5A4.5,4.5,0,0,1,83.528,33.328Z" transform="translate(-82.092 -15.025)" fill="none" stroke="#50b6f1" stroke-linecap="round" stroke-linejoin="round" stroke-width="1"/>
    <path id="Path_144" data-name="Path 144" d="M3,50.176a4.5,4.5,0,1,1,4.5,4.5A4.5,4.5,0,0,1,3,50.176Z" transform="translate(36.99 -23.806)" fill="none" stroke="#50b6f1" stroke-linecap="round" stroke-linejoin="round" stroke-width="1"/>
    <path id="Path_145" data-name="Path 145" d="M19.279,79.458a4.5,4.5,0,1,1,4.5,4.5A4.5,4.5,0,0,1,19.279,79.458Z" transform="translate(12.917 -39.069)" fill="none" stroke="#50b6f1" stroke-linecap="round" stroke-linejoin="round" stroke-width="1"/>
    <path id="Path_146" data-name="Path 146" d="M83.126,80.124a4.5,4.5,0,1,1,4.5,4.5A4.5,4.5,0,0,1,83.126,80.124Z" transform="translate(-81.497 -39.416)" fill="none" stroke="#50b6f1" stroke-linecap="round" stroke-linejoin="round" stroke-width="1"/>
    <path id="Path_147" data-name="Path 147" d="M34,21.811v5.1c0,1.894-.172,2.754-2.41,2.754H20.768" transform="translate(6.487 -11.369)" fill="none" stroke="#50b6f1" stroke-linecap="round" stroke-linejoin="round" stroke-width="1"/>
    <line id="Line_45" data-name="Line 45" x1="12.735" transform="translate(27.255 26.802)" fill="none" stroke="#50b6f1" stroke-linecap="round" stroke-linejoin="round" stroke-width="1"/>
    <path id="Path_148" data-name="Path 148" d="M58.838,63.728v-5.1c0-1.894.172-2.754,2.41-2.754H75.192" transform="translate(-52.929 -29.121)" fill="none" stroke="#50b6f1" stroke-linecap="round" stroke-linejoin="round" stroke-width="1"/>
    <line id="Line_46" data-name="Line 46" x2="11.821" transform="translate(10.442 18.247)" fill="none" stroke="#50b6f1" stroke-linecap="round" stroke-linejoin="round" stroke-width="1"/>
    <line id="Line_47" data-name="Line 47" x1="3.44" transform="translate(27.209 40.753)" fill="none" stroke="#50b6f1" stroke-linecap="round" stroke-linejoin="round" stroke-width="1"/>
  </g>
</svg>
